PathFileType	4	(X/Y/Z)	C:\Users\°ÂÌØÂü\Desktop\20210112\bx_y_5_1801-Unnamed.trc
DataRate	CameraRate	NumFrames	NumMarkers	Units	OrigDataRate	OrigDataStartFrame	OrigNumFrames
50.00	50.00	       5	0	mm	50.00	210	       558
Frame#	Time	
		

210	4.180	-531.92584	250.99991	483.67435	-746.04053	-34.51715	701.87836	-811.55560	293.97125	677.75061	-1050.09924	94.06377	742.20612	-544.50098	190.79996	542.14410	-812.44434	-92.23009	657.58838	-585.27301	297.78113	522.06238	-550.22296	-31.58790	469.76764	-618.02759	297.31549	552.08765	-642.13275	293.31827	465.77762	-665.44153	-67.19685	163.06186	-517.81024	-72.53174	142.35040	-624.88770	-78.61611	159.45178	-761.47614	223.94141	205.19780	-882.45636	296.06766	144.59520	-672.46338	55.25678	156.27487	-601.66711	19.49118	165.78354	-559.49219	-41.29571	162.60275	-674.26666	173.39993	154.11877	-593.27698	222.83487	172.33525	-666.91467	298.46664	160.35330	-629.68475	306.85742	161.30800	-560.11969	261.85370	164.04218	-528.29681	304.12378	146.54613	-282.45157	116.20894	1132.46289	-468.12091	275.38989	909.82471	-609.45111	-85.90105	552.11334	-790.96783	168.50282	188.40396	-757.47156	-4.96420	207.02731	-789.99103	61.51056	178.05304	-703.63660	76.13570	211.98650	-660.05695	-74.00900	455.57718	-875.93195	-78.89499	141.20357	-565.12189	26.03147	546.62378	-699.53638	153.36635	209.95398	-718.83246	313.42203	598.18451	-691.17719	-99.85755	592.85077	-594.33789	-81.75861	514.83307	-450.59726	-45.72698	902.38635	-745.89520	226.31917	702.47760	
211	4.200	-532.59644	251.11520	483.55991	-745.96576	-34.73765	702.75537	-812.06372	293.84137	678.86554	-1050.01831	93.92815	743.65771	-545.18726	190.81238	542.54724	-812.12183	-92.25019	658.49957	-586.33722	298.19525	522.76117	-550.19873	-31.30625	470.13651	-618.48871	297.20566	552.67657	-642.61481	293.74838	466.40561	-665.53772	-67.31594	163.01239	-517.81024	-72.53174	142.35040	-625.57074	-78.89024	159.25899	-761.79614	224.05609	205.18617	-882.65637	296.24680	144.69257	-672.46338	55.25678	156.27487	-601.72815	19.48295	165.72826	-559.51044	-41.10557	162.38510	-674.26349	173.59683	153.69699	-593.17999	222.73663	172.20023	-666.92468	298.35251	160.20811	-629.72156	306.96637	161.27773	-560.11969	261.85370	164.04218	-528.24243	304.18292	146.41551	-283.47192	115.93557	1134.91565	-470.58603	274.61163	910.65436	-609.54523	-86.15714	552.64050	-790.89240	168.81306	188.59100	-757.95245	-5.20799	206.96352	-790.04272	61.43857	178.06648	-703.71478	76.70061	211.75883	-660.02612	-73.94193	455.96088	-876.20093	-79.02077	141.43263	-565.23206	26.03913	546.74451	-700.03540	152.49879	209.79720	-719.76489	312.74966	599.19647	-690.89264	-99.12665	593.29474	-594.49725	-81.83067	515.33734	-451.03275	-46.30571	904.57373	-746.29474	225.60968	703.02014	
212	4.220	-533.46082	250.83270	483.45291	-745.49042	-34.77958	703.59259	-811.91650	293.55447	680.57806	-1049.82605	93.35464	745.93597	-545.59351	190.75630	543.11401	-812.23206	-92.48226	659.34619	-586.85077	297.59534	522.53381	-550.51184	-31.18442	470.33350	-619.09045	297.53085	553.70917	-643.37274	293.30215	465.83057	-665.42139	-67.15310	163.06934	-517.81024	-72.53174	142.35040	-625.36560	-78.48208	159.30902	-761.86505	223.92442	205.03496	-882.48456	296.10822	144.64120	-672.56073	55.54724	156.41539	-601.65326	19.62366	165.61852	-559.51044	-41.10557	162.38510	-674.11694	173.65974	153.57268	-593.21753	222.68655	172.12082	-667.15417	298.40579	160.40977	-629.72156	306.96637	161.27773	-560.08124	262.07529	164.14215	-528.27325	304.36093	146.42050	-284.29462	115.76383	1138.02527	-471.29099	275.41547	914.50446	-609.74591	-85.90162	552.65973	-790.89917	168.85265	188.60194	-757.98505	-5.23437	206.90050	-790.10718	61.26774	177.96217	-704.10229	76.85249	212.25378	-659.99341	-73.91529	456.04193	-875.97589	-78.81084	141.28232	-565.63068	25.63023	546.22632	-700.26276	152.28304	209.95061	-720.46472	312.67139	600.19958	-691.84796	-100.27116	595.52271	-594.60083	-81.41215	515.23260	-452.48309	-46.57827	906.77588	-746.16437	225.98889	704.87695	
213	4.240				-745.24689	-35.28483	704.93347	-812.44922	293.66061	682.04297	-1049.48059	92.95787	748.78192	-546.33075	190.79222	543.17517	-812.36243	-92.96500	660.43201	-587.19409	297.40714	523.08923	-550.51184	-31.18442	470.33350	-620.12280	296.81015	553.90381	-644.01007	292.57373	466.08588	-665.39874	-67.19092	163.07996	-517.68781	-72.71111	142.60493	-625.38507	-78.23582	158.68279	-762.13580	224.06644	205.07016	-882.62701	296.24408	144.67265	-672.71442	55.52660	156.16618	-602.29260	19.94874	165.17439	-559.41815	-41.18600	162.67926	-674.26349	173.59683	153.69699	-593.62897	222.70352	172.54755	-667.04919	298.45157	160.38675	-629.73804	307.05786	161.22842	-560.21094	262.01169	164.06093	-528.24835	304.48935	146.43700	-285.25964	115.33252	1141.44629	-472.11615	275.18686	917.50830	-609.71960	-85.84516	552.83771	-790.83588	168.81201	188.54285	-758.09607	-5.22353	206.69960	-790.09583	61.19907	178.10240	-704.00806	76.98936	212.18208	-660.13062	-73.85944	455.88550	-875.99298	-78.87768	141.19183	-565.63068	25.63023	546.22632	-700.90277	151.44925	210.53743	-720.65259	311.81476	601.06793	-692.23846	-100.57572	596.02728	-594.59204	-81.94868	515.53510				-746.21667	225.21617	705.63043	
214	4.260				-744.80725	-35.59665	706.01471	-812.34052	293.42200	684.81683	-1049.45605	92.69119	751.65833	-546.74475	190.38629	543.41888	-812.27057	-93.36295	662.44537	-587.95239	297.80933	524.41016	-550.70197	-31.19704	470.57126	-620.33575	296.32983	554.71637	-644.03772	292.41647	466.54556	-665.46301	-67.22047	163.18375	-517.85095	-72.37222	142.10287	-625.39807	-78.51942	158.89967	-762.22113	224.21011	205.10280	-882.50342	296.22003	144.72592	-672.46338	55.25678	156.27487	-602.59613	20.00133	165.05385	-559.12042	-41.23490	162.32265	-674.34717	173.65967	153.59253	-593.47174	222.73723	172.26637	-667.04919	298.45157	160.38675	-629.73804	307.05786	161.22842	-560.32733	262.27185	164.44626	-528.24835	304.48935	146.43700	-285.31503	115.06580	1145.07080	-473.54108	275.76926	922.54742	-609.98297	-85.97297	552.97418	-790.85657	168.70918	188.57999	-758.19135	-5.19407	206.62454	-790.03046	60.91769	178.10081	-704.09485	77.02827	212.11557	-660.32617	-73.96976	456.18558	-876.01788	-78.74021	141.33287	-565.86115	26.32651	546.87726	-701.02814	151.53075	210.51785	-721.15594	311.71915	602.54584	-692.21576	-100.97971	596.59717	-595.22028	-81.63047	515.41205				-745.96692	225.57831	707.57330	
